<!DOCTYPE svg PUBLIC "-//W3C//DTD SVG 20010904//EN" "http://www.w3.org/TR/2001/REC-SVG-20010904/DTD/svg10.dtd">
<svg version="1.0" xmlns="http://www.w3.org/2000/svg" width="1200px" height="425px" viewBox="0 0 12000 4250" preserveAspectRatio="xMidYMid meet">
<g id="layer101" fill="#12584e" stroke="none">
<path d="M1903 3890 c-514 -43 -996 -321 -1298 -750 -276 -393 -381 -893 -285 -1369 137 -679 660 -1216 1340 -1375 262 -62 581 -58 840 9 707 183 1237 785 1321 1502 17 143 6 443 -21 567 -168 784 -802 1347 -1595 1415 -132 12 -165 12 -302 1z"/>
</g>
<g id="layer102" fill="#ffffff" stroke="none">
<path d="M2002 3259 c-61 -12 -139 -57 -174 -101 -39 -50 -68 -127 -68 -182 l0 -44 -116 -66 c-64 -36 -120 -66 -124 -66 -3 0 -17 11 -29 24 -63 67 -218 91 -312 49 -63 -28 -120 -81 -149 -140 -35 -68 -40 -182 -11 -248 31 -71 75 -119 136 -151 l55 -29 0 -166 0 -167 -42 -22 c-55 -28 -114 -84 -141 -135 -18 -33 -22 -57 -22 -135 0 -109 15 -149 82 -211 105 -101 258 -116 376 -38 l45 29 125 -72 125 -73 4 -60 c9 -106 70 -195 166 -242 47 -23 70 -28 132 -28 163 1 282 110 297 273 l6 59 124 71 124 71 45 -29 c202 -128 464 13 464 250 0 111 -64 216 -161 266 l-49 24 0 169 0 168 40 18 c22 10 60 39 85 64 149 151 94 407 -105 487 -94 39 -240 13 -301 -52 -12 -13 -26 -24 -31 -24 -5 0 -60 29 -122 65 l-113 65 -6 60 c-16 177 -183 304 -355 269z m-128 -530 c50 -40 115 -61 186 -61 91 0 156 29 218 97 l48 52 99 -58 100 -59 0 -87 c0 -71 5 -98 24 -141 33 -73 107 -138 182 -160 l59 -17 0 -157 0 -156 -32 -7 c-58 -12 -130 -59 -170 -108 -63 -80 -79 -170 -52 -287 5 -23 -3 -30 -102 -87 l-107 -62 -46 48 c-71 75 -119 96 -221 96 -73 0 -92 -4 -136 -27 -28 -15 -70 -48 -92 -73 l-40 -46 -89 52 c-147 86 -132 69 -116 135 38 148 -55 307 -204 350 l-53 15 0 157 0 157 58 17 c117 35 204 149 206 271 1 34 -2 73 -6 87 -7 23 0 29 100 86 l106 61 28 -34 c14 -19 38 -43 52 -54z"/>
<path d="M8051 3015 c-246 -56 -438 -183 -571 -380 -61 -90 -76 -121 -110 -219 -115 -331 -26 -696 230 -946 95 -93 208 -162 342 -208 96 -34 113 -36 249 -40 126 -4 158 -1 235 18 231 57 422 193 552 393 137 210 179 472 116 722 -23 91 -106 254 -172 337 -123 154 -279 257 -471 309 -101 27 -310 35 -400 14z m294 -260 c318 -66 529 -341 512 -669 -18 -344 -293 -606 -637 -606 -144 0 -245 34 -373 123 -194 136 -299 401 -253 637 69 354 408 586 751 515z"/>
<path d="M6200 3000 c-262 -65 -480 -253 -591 -510 -53 -124 -73 -223 -73 -360 1 -190 50 -354 155 -510 243 -363 700 -487 1094 -295 196 95 343 269 421 498 l23 67 -128 0 -128 0 -37 -75 c-43 -86 -128 -183 -203 -231 -28 -19 -87 -46 -130 -60 -67 -24 -94 -27 -198 -27 -105 -1 -129 3 -193 26 -208 75 -364 252 -412 467 -13 60 -13 216 1 282 6 29 31 95 55 146 76 158 218 278 389 328 73 21 227 24 305 5 167 -41 321 -165 395 -318 l40 -82 127 -1 126 0 -9 33 c-37 135 -114 271 -212 373 -122 129 -238 198 -404 240 -122 31 -298 32 -413 4z"/>
<path d="M4242 2939 c-33 -45 -49 -76 -43 -83 4 -6 82 -112 173 -236 90 -124 236 -322 323 -440 87 -118 206 -280 264 -360 58 -80 136 -185 173 -235 37 -49 68 -93 68 -97 0 -5 -209 -8 -465 -8 l-465 0 0 -120 0 -120 599 0 599 0 43 84 43 83 -498 684 -497 684 490 3 491 2 0 115 0 115 -623 0 -624 0 -51 -71z"/>
<path d="M9280 2125 l0 -885 360 0 c409 0 467 7 583 68 293 153 381 566 178 834 -66 88 -143 142 -256 180 -38 13 -71 28 -71 33 -1 6 113 147 255 314 141 167 262 312 269 322 13 18 7 19 -155 18 l-168 0 -122 -147 c-67 -81 -212 -255 -322 -387 l-201 -240 0 -62 0 -61 198 -4 c182 -3 201 -5 250 -27 149 -67 216 -255 143 -406 -34 -71 -78 -116 -146 -147 -47 -22 -64 -23 -292 -26 l-243 -4 0 756 0 756 -130 0 -130 0 0 -885z"/>
<path d="M10630 2125 l0 -885 540 0 540 0 0 130 0 130 -410 0 -410 0 0 245 0 245 400 0 400 0 0 135 0 135 -400 0 -400 0 0 245 0 245 410 0 410 0 0 130 0 130 -540 0 -540 0 0 -885z"/>
</g>


</svg>