<!DOCTYPE svg PUBLIC "-//W3C//DTD SVG 20010904//EN" "http://www.w3.org/TR/2001/REC-SVG-20010904/DTD/svg10.dtd">
<svg version="1.0" xmlns="http://www.w3.org/2000/svg" width="1200px" height="411px" viewBox="0 0 12000 4110" preserveAspectRatio="xMidYMid meet">
<g id="layer101" fill="#115b50" stroke="none">
 <path d="M2200 3759 c-746 -86 -1341 -630 -1497 -1368 -24 -113 -27 -148 -27 -336 0 -190 2 -222 27 -336 130 -613 546 -1087 1133 -1289 192 -66 313 -85 554 -85 173 0 222 4 315 22 530 108 951 421 1203 893 90 167 160 394 183 584 17 146 7 416 -21 546 -114 539 -460 981 -946 1211 -288 136 -619 193 -924 158z"/>
 <path d="M8245 2860 c-164 -21 -333 -102 -457 -218 -116 -109 -182 -212 -233 -362 -159 -465 141 -984 629 -1087 112 -23 307 -14 416 21 554 179 771 828 435 1301 -174 245 -489 382 -790 345z m242 -255 c147 -35 277 -125 361 -250 120 -179 135 -402 41 -596 -79 -162 -237 -286 -414 -324 -90 -19 -148 -19 -242 1 -117 24 -204 73 -299 168 -125 125 -174 244 -174 419 0 97 20 188 56 260 127 250 406 384 671 322z"/>
 <path d="M6525 2850 c-404 -74 -703 -465 -670 -878 29 -367 259 -655 602 -754 112 -33 304 -32 418 1 161 46 294 134 395 260 51 64 130 215 148 284 l10 37 -118 0 -119 0 -30 -62 c-81 -169 -229 -275 -416 -300 -191 -26 -342 27 -480 166 -125 125 -175 249 -175 429 0 171 61 309 191 432 141 132 313 180 502 140 173 -37 316 -149 390 -307 l32 -68 118 0 c136 0 128 -13 75 120 -94 239 -280 409 -525 481 -78 23 -269 33 -348 19z"/>
 <path d="M4642 2781 l-51 -69 473 -643 472 -644 -438 -3 -438 -2 0 -110 0 -110 563 0 563 0 38 77 37 76 -19 26 c-159 216 -902 1242 -902 1246 0 3 205 5 455 5 l456 0 -3 108 -3 107 -577 3 -576 2 -50 -69z"/>
 <path d="M9345 2838 c-3 -7 -4 -380 -3 -828 l3 -815 350 1 c348 1 351 1 427 26 43 14 100 40 128 58 141 90 230 264 230 448 0 222 -145 419 -355 482 -22 6 -46 13 -53 16 -12 3 91 130 417 514 44 52 81 98 81 103 0 4 -69 7 -152 7 l-153 -1 -302 -364 -303 -365 0 -54 0 -54 178 -4 c195 -6 241 -16 304 -68 20 -17 49 -56 65 -88 23 -48 28 -69 27 -132 0 -44 -7 -90 -16 -111 -23 -53 -75 -107 -132 -137 -50 -26 -54 -27 -278 -30 l-228 -4 0 706 0 706 -115 0 c-83 0 -117 -3 -120 -12z"/>
 <path d="M10590 2025 l0 -825 505 0 506 0 -3 118 -3 117 -382 3 -383 2 0 230 0 230 375 0 375 0 0 120 0 120 -375 0 -375 0 0 230 0 230 383 2 382 3 0 120 0 120 -502 3 -503 2 0 -825z"/>
 </g>
<g id="layer102" fill="#fefefe" stroke="none">
 <path d="M2292 3142 c-108 -39 -180 -132 -191 -245 l-6 -61 -70 -41 c-38 -23 -89 -52 -111 -64 l-41 -23 -50 34 c-65 45 -128 62 -201 55 -100 -9 -178 -60 -227 -149 -27 -47 -30 -62 -30 -138 0 -69 5 -93 23 -128 29 -55 94 -118 138 -134 l34 -12 0 -166 0 -165 -46 -24 c-167 -89 -205 -308 -78 -450 63 -70 124 -94 229 -89 72 3 88 7 135 36 l53 33 121 -70 121 -69 6 -59 c11 -107 64 -187 156 -233 40 -21 62 -25 133 -25 95 0 124 11 191 72 52 47 88 118 95 190 l6 58 120 69 119 68 37 -24 c55 -36 97 -48 171 -48 253 0 377 305 199 486 -22 23 -58 50 -79 59 l-39 18 0 167 0 166 37 13 c56 21 127 98 148 161 40 119 9 240 -81 319 -103 91 -260 95 -366 11 -20 -17 -40 -30 -45 -30 -4 0 -55 27 -114 61 l-106 61 -7 56 c-18 151 -123 256 -269 268 -45 3 -76 0 -115 -14z m-110 -475 c68 -68 131 -92 227 -85 81 6 133 31 190 93 33 36 47 45 60 39 10 -5 56 -31 104 -59 80 -46 86 -52 79 -75 -13 -46 -5 -134 15 -181 39 -87 120 -154 211 -174 l32 -7 0 -151 0 -152 -50 -12 c-145 -34 -238 -183 -210 -333 6 -29 12 -56 15 -58 3 -3 -43 -33 -103 -67 l-107 -61 -39 43 c-59 67 -125 97 -216 97 -63 1 -84 -4 -133 -27 -33 -16 -71 -46 -89 -68 -17 -21 -36 -39 -41 -39 -6 0 -55 26 -109 57 -84 49 -98 61 -93 78 13 45 17 133 6 172 -26 96 -127 196 -212 209 l-39 7 0 152 0 153 58 18 c44 14 70 31 114 74 68 68 92 133 86 236 l-3 66 90 53 c50 29 93 53 97 54 4 1 31 -23 60 -52z"/>
 </g>

</svg>