<?xml version="1.0" encoding="utf-8"?>
<!DOCTYPE svg PUBLIC "-//W3C//DTD SVG 20010904//EN" "http://www.w3.org/TR/2001/REC-SVG-20010904/DTD/svg10.dtd">
<svg version="1.0" xmlns="http://www.w3.org/2000/svg" width="1024px" height="1024px" viewBox="0 0 1024 1024" preserveAspectRatio="xMidYMid meet">
 <g fill="#0f5f54">
  <path d="M481.5 1021.9 c-26.2 -2.1 -46.2 -4.4 -59 -6.8 -16.9 -3.3 -21.4 -4.2 -25 -5 -8.4 -2.1 -16.1 -4 -19.5 -5 -1.9 -0.5 -5.5 -1.5 -8 -2.1 -2.5 -0.7 -5.4 -1.5 -6.5 -2 -1.1 -0.4 -6.7 -2.2 -12.5 -4 -5.8 -1.8 -10.9 -3.6 -11.5 -4 -0.5 -0.3 -3.5 -1.4 -6.5 -2.4 -3 -1 -7.4 -2.7 -9.7 -3.7 -2.4 -1 -4.5 -1.9 -4.9 -1.9 -0.3 0 -3.1 -1.2 -6.2 -2.6 -3.1 -1.4 -7.7 -3.4 -10.2 -4.4 -6 -2.4 -39.8 -19.7 -43.1 -22.1 -1.5 -1 -3 -1.9 -3.3 -1.9 -2.5 0 -45.7 -28.9 -57.4 -38.5 -0.9 -0.8 -4.6 -3.7 -8.2 -6.7 -19.4 -15.8 -45.7 -41.1 -61.6 -59.3 -3.8 -4.4 -7.3 -8.5 -7.9 -9.1 -0.5 -0.6 -2.6 -3 -4.5 -5.4 -1.9 -2.4 -4.6 -5.8 -6 -7.5 -5.8 -6.9 -27 -36.9 -27 -38.1 0 -0.3 -1.1 -2 -2.4 -3.7 -2.2 -2.9 -7.4 -11.6 -15.7 -26.2 -1.6 -2.7 -6.3 -12 -10.5 -20.5 -11.5 -23.4 -13.8 -28.5 -18.9 -42.5 -2 -5.5 -3.9 -10.7 -4.4 -11.5 -0.4 -0.8 -2.2 -6.2 -4 -12 -1.9 -5.8 -3.7 -11.4 -4.1 -12.5 -0.4 -1.1 -1.5 -4.7 -2.4 -8 -0.9 -3.3 -2.1 -7.6 -2.6 -9.5 -1.9 -6.8 -5.3 -21.6 -6.7 -29 -0.7 -4.1 -1.8 -9.7 -2.3 -12.5 -4.2 -21.9 -8 -64.1 -8 -89.5 0 -25.4 3.7 -67.2 8 -89.5 0.5 -2.7 1.4 -7.7 2 -11 1 -5.8 5 -23.3 7 -30.5 3.1 -11.4 4.3 -15.7 5 -17.5 0.4 -1.1 2.2 -6.7 4.1 -12.5 1.8 -5.8 3.6 -11.2 4 -12 0.4 -0.8 2 -4.9 3.5 -9 1.4 -4.1 3.3 -9.1 4.1 -11 0.8 -1.9 1.9 -4.4 2.3 -5.5 3.6 -8.7 19 -40.4 23.9 -49 8.3 -14.6 13.5 -23.3 15.7 -26.2 1.3 -1.7 2.4 -3.4 2.4 -3.7 0 -1.2 21.2 -31.2 27 -38.1 1.4 -1.7 4.1 -5.1 6 -7.5 1.9 -2.4 4 -4.8 4.5 -5.4 0.6 -0.6 4.1 -4.7 7.9 -9.1 15.9 -18.2 42.2 -43.5 61.6 -59.3 3.6 -3 7.3 -5.9 8.2 -6.7 11.7 -9.6 54.9 -38.5 57.4 -38.5 0.3 0 1.8 -0.9 3.3 -1.9 3.3 -2.4 37.1 -19.7 43.1 -22.1 2.5 -1 7 -2.9 10 -4.3 3 -1.3 10 -4.1 15.5 -6.1 5.5 -2.1 10.7 -4.1 11.5 -4.5 0.8 -0.4 6.2 -2.2 12 -4 5.8 -1.9 11.4 -3.7 12.5 -4.1 1.1 -0.5 4 -1.3 6.5 -2 2.5 -0.6 6.1 -1.6 8 -2.1 3.4 -1 11.1 -2.9 19.5 -5 3.6 -0.8 8.1 -1.7 25 -5 21.8 -4.1 64.1 -7.9 89.5 -7.9 25.4 0 67.7 3.8 89.5 7.9 16.9 3.3 21.4 4.2 25 5 8.4 2.1 16.1 4 19.5 5 1.9 0.5 5.5 1.5 8 2.1 2.5 0.7 5.4 1.5 6.5 2 1.1 0.4 6.7 2.2 12.5 4.1 5.8 1.8 11.2 3.6 12 4 0.8 0.4 6 2.4 11.5 4.5 13.6 5 22.5 9.1 22.5 10.4 0 0.6 -1.2 1.8 -2.7 2.6 -1.6 0.8 -6.4 3.5 -10.8 6 -4.4 2.5 -11.8 6.6 -16.5 9.1 -4.7 2.6 -9.7 5.4 -11.2 6.5 -1.4 1 -2.8 1.8 -3.1 1.8 -0.3 0 -6 3.1 -12.8 7 -6.7 3.8 -12.4 7 -12.5 7 -0.2 0 -2.5 1.3 -5.2 2.9 -2.7 1.6 -7.6 4.4 -10.8 6.2 -3.3 1.7 -13.1 7.3 -21.9 12.2 -8.8 5 -18 10.1 -20.5 11.5 -2.5 1.4 -15.3 8.6 -28.5 16 -35.8 20.2 -37.4 21.1 -45.5 25.5 -4.1 2.2 -8.6 4.8 -10 5.7 -1.4 1 -5.4 3.3 -8.9 5.1 -7.2 3.8 -6.8 3.5 -31.1 17.3 -9.6 5.4 -21.5 12.1 -26.5 14.9 -8.8 4.9 -27.5 15.4 -34.5 19.4 -2.8 1.6 -51 28.7 -62.4 35.2 -7.9 4.4 -24.6 13.7 -28.6 15.9 -2.5 1.3 -7.4 4.1 -11 6.1 -19 10.9 -30.1 17.1 -35.2 19.4 -4.2 1.9 -5.7 3.1 -6 4.8 -0.2 1.4 -1.1 2.5 -2.3 2.7 -4.5 0.9 -19.4 11 -26.6 18.2 -11.3 11.2 -17.1 20.7 -22.5 36.5 -2.4 7 -2.7 9.6 -2.8 21.5 0 11.4 0.3 14.6 2.2 20.9 5.3 16.9 15.2 32.9 26.3 42.3 7 6 19 13.3 25 15.3 4.3 1.5 4.8 1.9 5.8 6 0.7 2.9 1.1 20.3 1.1 51.4 l0 47.1 -2.8 0 c-2.5 0 -6.2 2.9 -6.2 4.9 0 1.1 -17.6 11.1 -19.5 11.1 -0.8 0 -1.5 0.6 -1.5 1.3 0 0.8 -2.1 3.5 -4.7 6 -6.2 6 -10.3 10.4 -10.3 11 0 0.3 -1.7 3.4 -3.8 6.8 -8.4 14 -11.7 26 -11.6 42.4 0 9.6 0.5 13.5 2.3 19.5 8.9 28.9 29.6 50.6 56.6 59.3 6 2 20.6 4.7 25.6 4.7 4.8 0 20.3 -3.4 26.4 -5.8 11.5 -4.6 31.9 -17.2 32.3 -20.1 0.3 -1.7 1.1 -2.1 3.8 -2.1 1.9 0 3.4 0.5 3.4 1 0 0.6 1.5 1 3.3 1 2.5 0 10 3.8 28.8 14.6 14 8 27.8 16 30.6 17.6 2.9 1.6 5.6 3.5 6 4.1 0.5 0.7 0.9 6.2 0.9 12.2 0.4 26.2 13 50.6 34.9 67.2 6.7 5.1 14.8 9.2 24.6 12.5 8.8 2.9 10.4 3.2 23.9 3.2 13.4 0.1 15.1 -0.1 22.5 -2.7 10.8 -3.8 13.2 -4.9 25.4 -12.5 15.5 -9.5 25.1 -15.2 25.7 -15.2 0.3 0 7.2 -3.8 15.2 -8.4 21 -11.9 56 -31.6 67.7 -38.1 2.2 -1.2 7.4 -4.1 11.5 -6.5 4.1 -2.3 10 -5.6 13 -7.2 3 -1.7 9.9 -5.5 15.4 -8.6 l9.8 -5.5 12.2 -0.8 c10.8 -0.7 20.4 -2.3 26.1 -4.4 7.7 -2.8 17.1 -7.5 23 -11.6 4 -2.7 24.3 -14.9 24.9 -14.9 0.1 0 12.4 -6.8 27.2 -15.1 31.4 -17.6 33 -18.5 40.9 -22.9 3.3 -1.8 7.1 -4 8.5 -4.8 1.4 -0.9 8.1 -4.7 15 -8.5 16.7 -9.3 26.7 -14.9 31.5 -17.7 5.5 -3.2 34.6 -19.5 42.5 -23.8 3.6 -1.9 8.2 -4.6 10.2 -5.9 2.1 -1.3 3.9 -2.3 4.1 -2.3 0.2 0 6.4 -3.4 13.8 -7.5 8.6 -4.8 14.5 -7.5 16.5 -7.5 l3.1 0 -0.9 5.8 c-0.5 3.1 -1.4 7.7 -1.8 10.2 -0.5 2.5 -1.6 7.9 -2.3 12 -1.4 7.4 -4.8 22.2 -6.7 29 -0.5 1.9 -1.7 6.2 -2.6 9.5 -0.9 3.3 -2 6.9 -2.4 8 -0.4 1.1 -2.2 6.7 -4 12.5 -1.8 5.8 -3.6 11 -4 11.5 -0.3 0.6 -1.4 3.5 -2.4 6.5 -1 3 -2.3 5.9 -2.7 6.5 -0.5 0.5 -0.9 1.5 -0.9 2.3 0 0.8 -0.7 3 -1.6 5 -0.9 2.1 -2 4.6 -2.4 5.7 -3.6 8.7 -19 40.4 -23.9 49 -8.3 14.6 -13.5 23.3 -15.7 26.2 -1.3 1.7 -2.4 3.4 -2.4 3.7 0 1.2 -21.2 31.2 -27 38.1 -1.4 1.7 -4.1 5.1 -6 7.5 -1.9 2.4 -3.9 4.8 -4.5 5.4 -0.5 0.6 -4.1 4.7 -7.9 9.1 -15.9 18.2 -42.2 43.5 -61.6 59.3 -3.6 3 -7.3 5.9 -8.2 6.7 -11.7 9.6 -54.9 38.5 -57.4 38.5 -0.3 0 -1.8 0.9 -3.3 1.9 -3.3 2.4 -37.1 19.7 -43.1 22.1 -2.5 1 -7 2.9 -10 4.3 -3 1.3 -10 4.1 -15.5 6.1 -5.5 2.1 -10.7 4.1 -11.5 4.5 -0.8 0.4 -6.2 2.2 -12 4 -5.8 1.9 -11.4 3.7 -12.5 4.1 -1.1 0.5 -4 1.3 -6.5 2 -2.5 0.6 -6.1 1.6 -8 2.1 -3.4 1 -11.1 2.9 -19.5 5 -3.6 0.8 -8.1 1.7 -25 5 -13.5 2.5 -33 4.8 -61 6.9 -14.8 1.1 -44.2 1.1 -59 -0.1z"/>
 </g>
 <g fill="#144d45">
  <path d="M562 823.9 c0 -1.4 2.4 -4.4 6.6 -8.2 16.7 -15.3 26.7 -38.1 26.7 -60.9 0 -8.6 0.3 -11 1.6 -12.2 0.9 -0.7 10.6 -6.6 21.6 -12.9 11 -6.3 25.5 -14.7 32.2 -18.6 15.5 -9 17.3 -9.1 25.1 -2 10 9.2 19 14.7 30.7 18.7 4.9 1.7 16.4 4.2 19.8 4.2 0.4 0 0.7 0.9 0.7 1.9 0 1.4 -0.9 2.1 -3.2 2.6 -1.8 0.4 -7.6 3.1 -12.8 6 -5.2 2.9 -12 6.6 -15 8.3 -3 1.6 -8.9 4.9 -13 7.2 -4.1 2.4 -9.3 5.3 -11.5 6.5 -2.2 1.2 -9.2 5.1 -15.5 8.7 -6.3 3.6 -19.1 10.8 -28.5 16 -9.3 5.3 -19.3 10.9 -22 12.5 -2.8 1.7 -9.6 5.4 -15 8.3 -5.5 2.9 -13.8 7.7 -18.4 10.7 -4.7 2.9 -8.9 5.3 -9.3 5.3 -0.4 0 -0.8 -1 -0.8 -2.1z"/>
  <path d="M426 769.2 c0 -1.5 -0.5 -1.9 -2.2 -1.6 l-2.3 0.5 2.3 -1 c1.2 -0.6 2.2 -1.7 2.2 -2.6 0 -0.8 0.7 -1.5 1.6 -1.5 1.1 0 1.4 0.9 1.2 3.7 -0.3 3.8 -2.8 6 -2.8 2.5z"/>
  <path d="M782 717.2 c0 -2 1.1 -3.5 4.1 -5.7 6.1 -4.4 16.4 -17.9 20.8 -27 6.7 -13.9 8.5 -21.3 8.6 -35.5 0 -12.8 -0.4 -15 -5.3 -28.5 -7.3 -20.2 -22.7 -36.7 -43.8 -47 l-11.1 -5.4 -0.6 -30.8 c-0.4 -16.9 -0.7 -40.1 -0.7 -51.6 l0 -20.7 3.8 -1.7 c24.6 -10.7 39.7 -24.1 49.1 -43.8 6.9 -14.2 8.5 -21.2 8.5 -36 0 -11.6 -0.3 -13.9 -2.8 -21.5 -5.3 -16.1 -13 -28.6 -23.2 -37.9 -22.6 -20.7 -48.4 -27.8 -76.9 -21.1 -7.6 1.8 -22.2 9.1 -29.8 14.8 -9.6 7.3 -10.8 7.2 -28.2 -2.9 -7.7 -4.4 -16.2 -9.3 -19 -10.9 -13.8 -7.7 -37.2 -21.4 -38.6 -22.7 -1.3 -1.1 -1.6 -3.5 -1.6 -12.1 0 -37.5 -24.6 -69.5 -62.3 -81.3 -10.8 -3.4 -31.3 -3.4 -41.5 -0.1 -16.2 5.3 -26.4 11.1 -37.3 21.6 -16.1 15.3 -25.4 37 -25.6 59.6 -0.1 5.8 -0.4 11 -0.8 11.6 -0.4 0.6 -4.9 3.5 -10 6.4 -5.1 2.9 -13.3 7.7 -18.3 10.6 -51.9 30.2 -47.3 28.7 -58.5 20.1 -20.2 -15.4 -43.2 -20.6 -67 -15.1 -8.3 1.9 -13 3.5 -15.5 5.1 -2.2 1.4 -8.5 1.8 -8.5 0.5 0 -0.5 1.1 -1.5 2.5 -2.2 1.4 -0.8 2.3 -2 2.1 -2.7 -0.3 -0.7 0.1 -1.3 0.8 -1.3 0.8 0 1.6 0.6 1.9 1.3 0.4 0.9 0.7 0.9 1.8 -0.1 1.2 -1.1 1.2 -1.4 -0.1 -2.2 -1.1 -0.7 0.3 -1.7 5.5 -4.1 6.3 -2.9 17.7 -9.1 36.5 -20 3.6 -2 8.5 -4.8 11 -6.1 4 -2.2 20.7 -11.5 28.6 -15.9 11.4 -6.5 59.6 -33.6 62.4 -35.2 7 -4 25.7 -14.5 34.5 -19.4 5 -2.8 16.9 -9.5 26.5 -14.9 24.3 -13.8 23.9 -13.5 31.1 -17.3 3.5 -1.8 7.5 -4.1 8.9 -5.1 1.4 -0.9 5.9 -3.5 10 -5.7 8.1 -4.4 9.7 -5.3 45.5 -25.5 13.2 -7.4 26 -14.6 28.5 -16 2.5 -1.4 11.7 -6.5 20.5 -11.5 8.8 -4.9 18.6 -10.5 21.9 -12.2 3.2 -1.8 8.1 -4.6 10.8 -6.2 2.7 -1.6 5 -2.9 5.2 -2.9 0.1 0 5.8 -3.1 12.5 -7 6.8 -3.8 12.5 -7 12.8 -7 0.3 0 1.7 -0.8 3.1 -1.8 1.5 -1.1 6.8 -4 11.7 -6.7 5 -2.6 9.5 -5.1 10 -5.5 0.6 -0.5 5.2 -3.1 10.4 -5.9 7.2 -3.9 10 -4.9 11.9 -4.4 1.5 0.3 10.6 4.6 20.3 9.4 35.4 17.7 67 38.1 98.4 63.8 15.9 12.9 52.7 49.4 65.7 65.1 16.8 20.2 37.3 48.9 46.7 65.2 10.9 19 14.5 25.8 22.2 41.4 4.9 10 8.9 18.4 8.9 18.8 0 0.4 0.9 2.6 1.9 4.9 6.4 13.9 16.8 44.7 23.1 67.7 1.7 6.1 5.9 24.3 7.1 30.5 0.6 3.3 1.5 8 2 10.5 1.3 6.8 3.7 24.7 5.5 42 2.4 21.7 2.3 74.6 0 96 -3.2 29.3 -3.1 29 -4.9 29 -0.6 0 -7.2 3.4 -14.6 7.5 -7.4 4.1 -13.6 7.5 -13.8 7.5 -0.2 0 -2 1 -4.1 2.3 -2 1.3 -6.6 4 -10.2 5.9 -7.9 4.3 -37 20.6 -42.5 23.8 -4.8 2.8 -14.8 8.4 -31.5 17.7 -6.9 3.8 -13.6 7.6 -15 8.5 -1.4 0.8 -5.2 3 -8.5 4.8 -7.9 4.4 -9.5 5.3 -40.9 22.9 -14.8 8.3 -27.1 15.1 -27.2 15.1 -0.1 0 -3.8 2.1 -8.1 4.7 -4.3 2.5 -9.9 5.9 -12.5 7.4 l-4.8 2.8 0 -2.7z"/>
  <path d="M342 716.7 c0 -1.6 1.7 -3.8 5.3 -6.8 2.8 -2.4 5.4 -4.7 5.5 -5.1 0.6 -1.3 8.6 -0.8 10.5 0.6 0.9 0.7 1.7 2.3 1.7 3.4 0 1.8 -0.4 2 -3.5 1.5 -2.9 -0.5 -4.5 0.2 -10.6 4.1 -4 2.5 -7.6 4.6 -8.1 4.6 -0.4 0 -0.8 -1.1 -0.8 -2.3z"/>
  <path d="M580.4 709 c-12.8 -19.2 -35.1 -32.9 -59 -36.3 -14.8 -2.2 -31.6 1.2 -47.6 9.5 -12.2 6.3 -27.4 20.4 -32.4 30 -1.2 2.4 -2.1 2.8 -5.6 2.8 -3.4 0 -6.7 -1.5 -17.7 -7.9 -7.5 -4.3 -15.8 -9.1 -18.6 -10.6 -2.7 -1.5 -10.3 -5.8 -16.7 -9.7 -11.4 -6.6 -11.8 -7 -11.8 -10.3 0 -1.8 0.4 -4.5 0.9 -5.8 0.6 -1.4 1.7 -6.9 2.6 -12.3 1.5 -8.3 1.5 -11 0.5 -16.9 -3.5 -21 -10.4 -35.6 -22.9 -48.8 -14.3 -15 -29.7 -23 -52.8 -27.3 l-2.3 -0.4 0 -48.9 0 -48.8 5.8 -0.7 c14.6 -1.7 33.7 -11.4 46.2 -23.6 14.3 -13.9 22 -28.9 25.6 -49.7 1.8 -11.1 1.1 -18.7 -3.2 -32.5 -1.3 -4.2 -2.4 -9.5 -2.4 -11.7 l0 -3.9 17.8 -10.3 c9.7 -5.7 24.2 -14 32 -18.6 8.9 -5.1 15.5 -8.3 17.3 -8.3 2.4 0 3.5 1 7 6.3 8.9 13 23.2 24.8 37.7 31 36.6 15.6 77.5 2.4 101.1 -32.5 2.7 -4.1 3.7 -4.8 6.4 -4.8 1.8 0 3.7 0.4 4.3 0.9 0.8 0.8 29 17.2 54.7 31.8 7.7 4.4 7.7 4.4 7.7 8.6 0 2.3 -0.8 6.5 -1.9 9.2 -1 2.8 -2.7 9.6 -3.6 15.3 -1.6 8.8 -1.6 11.2 -0.6 17.5 3.9 22.7 11.2 37.1 26.3 51.9 12.2 12 23.7 18.2 41.8 22.3 l9.5 2.2 0.3 48.6 0.2 48.6 -3.7 0.7 c-30.3 5.3 -54.1 22.9 -66.4 49 -4 8.3 -5.7 14.3 -8 27.2 -1.3 7.5 -0.5 14.9 2.7 26.6 0.8 2.7 1.4 6.4 1.4 8.2 0 2.9 -0.6 3.7 -4.7 6 -2.7 1.5 -6.5 3.7 -8.5 5 -2 1.3 -7.2 4.3 -11.5 6.7 -4.3 2.4 -14.5 8.3 -22.7 13 -9 5.3 -16 8.7 -17.7 8.7 -2.3 0 -3.5 -1.1 -7.5 -7z"/>
  <path d="M221.1 597.3 c0.7 -1.9 0.7 -2.9 0 -3.1 -1.5 -0.5 -0.3 -2.2 1.6 -2.2 1 0 1.3 0.6 0.9 1.8 -0.4 1 0.2 0.7 1.4 -0.8 1.1 -1.4 2 -2.7 2 -3 0 -0.3 0.9 -1.1 2 -1.8 1.8 -1.1 2 -1 2 1.8 0 2.2 -0.5 3 -1.8 3 -1.2 0 -2.1 1.1 -2.7 3.3 -0.8 2.5 -1.6 3.3 -3.8 3.5 -2.6 0.3 -2.7 0.2 -1.6 -2.5z"/>
  <path d="M234.6 582.9 c1.4 -1.6 1.5 -2.2 0.5 -2.8 -1 -0.7 -0.7 -1.2 1 -2.5 2.7 -1.9 4.9 -2.1 4.9 -0.5 0 0.8 0.5 0.8 1.5 -0.1 1.3 -1.1 1.5 -0.8 1.5 1.5 0 3.5 -3.6 6.4 -7.9 6.5 -3.4 0 -3.4 0 -1.5 -2.1z"/>
  <path d="M254 571.1 c0 -0.5 0.7 -1.2 1.5 -1.5 0.9 -0.3 1.5 -1.2 1.3 -2 -0.2 -0.8 0 -1.5 0.5 -1.5 0.4 -0.1 1.6 -1 2.8 -2.2 1.2 -1.2 2.9 -1.9 4 -1.6 1.4 0.4 1.9 0 1.9 -1.5 0 -1.4 0.5 -1.8 1.6 -1.4 0.9 0.3 1.8 0.6 2 0.6 1.3 0 0.1 6.9 -1.3 8.2 -4 3.2 -14.3 5.4 -14.3 2.9z"/>
  <path d="M265.4 472.5 c-0.3 -2 -1.2 -3.5 -2 -3.5 -1.7 0 -1.9 -2 -0.1 -2.1 0.6 0 -0.1 -0.7 -1.8 -1.5 -3 -1.4 -3 -1.4 2 -1.1 l5 0.2 0.3 5.8 c0.2 4.5 0 5.7 -1.2 5.7 -0.9 0 -1.8 -1.3 -2.2 -3.5z"/>
 </g>
 <g fill="#ffffff">
  <path d="M495.9 841 c-11.8 -2.1 -26.3 -8.4 -35.4 -15.3 -21.8 -16.6 -34 -40.1 -35.1 -67.5 -0.2 -6.3 -0.6 -11.8 -0.9 -12.2 -0.3 -0.5 -2.4 -1.9 -4.8 -3.2 -8.8 -5 -58.7 -33.8 -60.6 -34.9 -1.6 -1.1 -2.7 -0.5 -8.7 4.8 -14.3 12.5 -25.5 18.1 -43.4 21.8 -16.9 3.4 -36.8 0.4 -54.5 -8.2 -21 -10.3 -37 -29.8 -44.6 -54.3 -2 -6.4 -2.3 -9.7 -2.4 -22.5 0 -15.9 0.8 -21.1 5.3 -32.5 4.2 -10.7 10.2 -19.9 18.7 -28.5 9 -9.2 16.5 -14.4 27.3 -19.1 4.1 -1.8 7.8 -3.6 8.4 -4.2 1.3 -1.3 1.1 -96.2 -0.3 -97.8 -0.6 -0.7 -3.2 -2 -5.8 -2.9 -6 -2 -18 -9.3 -25 -15.3 -11 -9.4 -20.9 -25.4 -26.3 -42.3 -2 -6.6 -2.3 -9.3 -2.2 -23.9 0.1 -15.2 0.3 -17.1 2.8 -24.5 8.5 -24.8 23.2 -42 45.3 -52.7 29.4 -14.2 64.5 -10.8 90.3 8.9 3.8 2.9 7.4 5.3 7.9 5.3 0.8 0 10 -5.3 44.6 -25.4 5 -2.9 13.2 -7.7 18.3 -10.6 5.1 -2.9 9.5 -5.7 9.8 -6.1 0.3 -0.5 0.7 -5.7 0.8 -11.6 1.4 -45.5 35.2 -81 80.2 -84.1 50.5 -3.5 91.3 33.5 93 84.2 0.2 7.3 0.7 11.3 1.6 12.2 1.1 1 23.3 14 37.8 22.2 2.5 1.3 10.2 5.8 17.1 9.8 18.7 10.9 16.4 10.4 24.5 4.3 16.7 -12.7 37 -18.7 58.4 -17.4 16.5 1 29.7 5.5 42.7 14.3 17.3 11.7 27.9 26 34.9 47.2 2.7 7.9 2.9 9.6 2.9 24.5 0 14 -0.3 17 -2.4 23.5 -8.9 28.7 -25.4 46.3 -55.3 59.3 l-3.8 1.7 0 17.7 c0 9.8 0.3 31.7 0.7 48.6 l0.6 30.8 11.1 5.4 c21.1 10.3 36.5 26.8 43.8 47 5 13.9 5.3 15.4 5.3 31.5 -0.1 17.5 -1.4 23.7 -8.6 38.5 -14.1 29.3 -47.8 49.9 -78.8 48.2 -22.5 -1.2 -40 -7.8 -54.8 -20.6 -4.1 -3.6 -8.1 -7 -8.7 -7.5 -0.8 -0.5 -5.6 1.7 -13.7 6.4 -6.8 4 -21.4 12.4 -32.4 18.7 -11 6.3 -20.6 12.1 -21.3 12.7 -0.9 0.9 -1.4 4.9 -1.6 12.2 -1 29.6 -15.3 55.3 -39.6 71 -6.4 4.1 -14.7 8.2 -17.9 8.9 -0.9 0.2 -3.6 1.1 -6.1 2 -5.2 2 -31.3 3 -39.1 1.5z m129.4 -149.7 c4.3 -2.4 9.5 -5.4 11.5 -6.7 2 -1.3 5.9 -3.5 8.5 -5 3.7 -2.1 4.7 -3.2 4.2 -4.4 -2.1 -5.3 -4 -17.6 -4 -26.2 0.1 -21.7 7.2 -40.8 21.5 -57.3 13.3 -15.4 31.4 -25.3 53.3 -29.1 l3.7 -0.7 -0.2 -45.6 -0.3 -45.6 -8.5 -1.9 c-25.6 -5.5 -44.5 -19.1 -58.3 -42 -6 -10.1 -11.7 -30.8 -11.7 -42.8 0 -6.6 3.2 -24.2 5.4 -29.5 0.9 -2 1.6 -4.3 1.6 -5.1 0 -0.7 -3.5 -3.3 -7.7 -5.7 -22.1 -12.6 -53.9 -31 -55 -31.9 -0.8 -0.6 -2.1 0.6 -4.4 3.9 -14.9 22.1 -36.1 35.4 -61.5 38.7 -17.4 2.3 -34.9 -0.6 -50.6 -8.4 -12.5 -6.2 -24.7 -16.9 -32.6 -28.7 l-4.2 -6.2 -14.2 8.3 c-7.9 4.5 -22.3 12.8 -32 18.5 -9.8 5.7 -17.8 10.8 -17.8 11.4 0 0.7 1 3.9 2.1 7.2 2.5 7.6 4.9 20.5 4.9 27 0 5.5 -2.4 19.9 -4.1 25.5 -8.5 26.7 -28.7 47.6 -54.9 56.9 -4.6 1.7 -11 3.3 -14.2 3.7 l-5.8 0.7 0 45.8 0 45.9 2.3 0.4 c23.1 4.3 38.5 12.3 52.8 27.3 7.1 7.4 11.2 13.6 15.3 22.6 4.9 11 8.6 26.4 8.6 36 0 5.2 -2.6 21.6 -4.1 25.4 -0.5 1.3 -0.9 2.6 -0.9 2.8 0 0.4 19.5 12.1 28.5 17 2.8 1.5 11.1 6.3 18.6 10.6 7.4 4.4 14.1 7.9 14.7 7.9 0.6 0 1.8 -1.3 2.6 -2.8 5 -9.6 20.2 -23.7 32.4 -30 9.7 -5 19 -7.9 31.5 -9.8 8.9 -1.4 10.9 -1.3 21 0.1 25.2 3.8 47 16.9 60 36.4 l4.7 6.9 14.8 -8.5 c8.1 -4.8 18.2 -10.6 22.5 -13z"/>
 </g>
</svg>